<?xml version="1.0" encoding="utf-8"?>
<!-- Generator: Adobe Illustrator 24.3.0, SVG Export Plug-In . SVG Version: 6.00 Build 0)  -->
<svg version="1.1" id="Layer_1" xmlns="http://www.w3.org/2000/svg" xmlns:xlink="http://www.w3.org/1999/xlink" x="0px" y="0px"
	 viewBox="0 0 180 33.09" style="enable-background:new 0 0 180 33.09;" xml:space="preserve">
<style type="text/css">
	.st0{fill:#5232E6;}
</style>
<g>
	<g>
		<path class="st0" d="M48.94,16.79c0-4.18,2.9-7.56,6.49-7.56c2.7,0,5.16,2,6.08,4.99l-2.27,0.75c-0.45-1.43-1.87-2.9-3.81-2.9
			c-2.39,0-4.17,2-4.17,4.75c0,2.6,1.85,4.69,4.17,4.69c1.85,0,3.22-1.46,3.63-2.51l2.25,1.02c-1.06,2.63-3.27,4.36-5.88,4.36
			C51.86,24.38,48.94,20.97,48.94,16.79z"/>
		<path class="st0" d="M62.58,16.67c0-4.06,2.72-7.5,6.51-7.5c2.52,0,3.85,2.03,4.14,2.3V3.43h2.32V17h-0.02
			c0,4.24-2.93,7.32-6.4,7.32C65.51,24.32,62.58,20.94,62.58,16.67z M64.88,16.76c0,2.78,1.82,4.69,4.21,4.69
			c2.3,0,4.14-1.82,4.14-4.57c0-2.87-1.8-4.99-4.19-4.99C66.66,11.89,64.88,14.16,64.88,16.76z"/>
		<path class="st0" d="M78.12,24.35V3.43h2.41V15l5.09-5.77h3.2l-6.31,7.35l6.82,7.77h-3.24l-5.56-6.18v6.18H78.12z"/>
		<path class="st0" d="M95.91,9.17c3.51,0,6.39,3.5,6.39,7.89v0.84l-9.5-0.96l7.05-0.99c-0.25-1.79-1.69-3.94-3.85-3.94
			c-2.3,0-4.23,2-4.23,4.84c0,2.12,1.58,4.6,4.23,4.6c1.94,0,3.02-1.31,3.49-2.3l2.39,0.57c-1.01,2.81-3.24,4.6-5.85,4.6
			c-3.67,0-6.6-3.38-6.6-7.56C89.42,12.61,92.33,9.17,95.91,9.17z"/>
		<path class="st0" d="M100.12,9.26h2.59l3.96,10.07l3.63-10.07h2.66l-5.76,15.86c-1.19,3.23-3.15,4.6-5.76,4.6
			c-0.02,0-0.25,0-0.52-0.03v-2.75c2.18,0,3.72-1.31,4.53-4L100.12,9.26z"/>
		<path class="st0" d="M114.76,24.35V3.37h6.44c4.47,0,8,4.47,8,10.37c0,5.87-3.48,10.61-7.88,10.61H114.76z M117.31,21.05h3.59
			c3.18,0,5.67-3.09,5.67-7.4c0-4.5-2.76-7.01-5.71-7.01h-3.55V21.05z"/>
		<path class="st0" d="M137.32,9.12c3.52,0,6.41,3.51,6.41,7.91v0.84l-9.53-0.96l7.07-0.99c-0.25-1.8-1.69-3.96-3.86-3.96
			c-2.3,0-4.25,2.01-4.25,4.85c0,2.13,1.58,4.61,4.25,4.61c1.94,0,3.03-1.32,3.5-2.31l2.39,0.57c-1.02,2.82-3.25,4.61-5.87,4.61
			c-3.68,0-6.62-3.39-6.62-7.58C130.82,12.57,133.73,9.12,137.32,9.12z"/>
		<path class="st0" d="M145.41,16.79c0-4.26,2.91-7.67,6.5-7.67c2.51,0,4.27,1.89,4.74,2.58V9.12h1.96v15.19h-1.96v-2.7
			c-0.45,0.72-2.15,2.7-4.72,2.7C148.17,24.32,145.41,20.78,145.41,16.79z M147.76,16.76c0,2.76,1.9,4.73,4.16,4.73
			s4.31-1.98,4.31-4.76c0-2.82-2.06-4.85-4.31-4.85C149.61,11.88,147.76,14.07,147.76,16.76z"/>
		<path class="st0" d="M160.97,24.35V3.37h2.39v20.98H160.97z"/>
		<path class="st0" d="M166.28,19.64V19.4h2.35c0.38,1.44,1.65,2.55,3.91,2.55c2.12,0,3.86-0.78,3.86-2.73
			c0-1.32-1.6-1.38-3.34-1.38h-2.53c-1.94,0-4.25-0.96-4.25-3.72c0-3.69,3.43-5,6.14-5c2.39,0,5.78,1.2,6.03,4.7
			c0,0.09,0,0.15,0.02,0.24h-2.33c-0.23-1.68-1.99-2.58-3.66-2.58c-1.67,0-3.86,0.54-3.86,2.52c0,1.5,1.6,1.53,3.14,1.53h2.39
			c1.92,0,4.63,0.48,4.63,3.54c0,4.02-3.05,5.36-6.37,5.36c-1.13,0-2.69-0.27-3.75-0.99C167.7,22.79,166.28,21.14,166.28,19.64z"/>
	</g>
	<g>
		<path class="st0" d="M18.36,0.83c-0.41,2.06-0.79,4.03-1.18,6.01c-0.82,0.11-1.55,0.18-2.26,0.32c-3.95,0.76-6.81,3.9-7.49,8.18
			c-0.58,3.67,1.43,7.71,4.78,9.59c3.42,1.92,7.6,1.48,10.5-1.2c0.68-0.63,1.23-0.74,2.07-0.47c1.6,0.53,3.24,0.93,4.88,1.39
			c-2.02,4.74-9.45,9.55-17.37,7.13C4.56,29.4-0.14,21.3,1.55,13.2c0.2-0.97,0.5-1.93,0.88-2.84C2.8,9.45,3.26,8.58,3.8,7.76
			C4.32,6.96,4.92,6.2,5.58,5.5C6.24,4.8,6.95,4.17,7.72,3.61c0.76-0.56,1.57-1.05,2.42-1.46c0.84-0.41,1.73-0.74,2.63-0.99
			c0.91-0.25,1.85-0.4,2.79-0.45c0.48-0.03,0.96-0.03,1.44-0.01C17.11,0.7,18.36,0.81,18.36,0.83z"/>
		<path class="st0" d="M34.2,1.14C33.34,1,32.47,0.9,31.6,0.83c-0.87-0.07-1.74-0.11-2.62-0.13c-0.88-0.02-1.76-0.02-2.63-0.02
			c-0.88,0.01-1.76,0.02-2.64,0.03c-0.88,0.01-1.77-0.02-2.65,0.02c-0.14,0.01-0.27,0.03-0.4,0.08c-0.08,0.03-0.15,0.09-0.21,0.14
			c-0.37,0.35-0.56,0.74-0.67,1.22c-0.11,0.46-0.2,0.92-0.29,1.38c-0.18,0.92-0.34,1.85-0.5,2.78c-0.05,0.3-0.11,0.6-0.16,0.9
			c-1.02,5.45-2.02,10.91-3.06,16.36c-0.18,0.96,0.39,1.56,1.28,1.34c1.28-0.32,2.6-0.66,3.76-1.29c1.03-0.55,1.24-1.94,1.46-3.01
			c0.28-1.42,0.56-2.85,0.83-4.28c0.51-2.7,1.02-5.46,1.49-8.13c0.17-0.93,0.58-1.38,1.46-1.36c2.06,0.06,4.14-0.06,6.18,0.19
			c4.2,0.51,7.43,4.55,7.6,9.26c0.06,1.75-0.32,3.41-1.06,4.85c-1.89,3.63-5.93,4.48-7.01,4.65c-0.18,0.03-0.34,0.12-0.46,0.27
			l-5.5,6.12c-0.07,0.08-0.02,0.21,0.09,0.21c2.07-0.02,4.75-0.04,6.76-0.4c4.39-0.78,8.48-3.57,10.9-7.59
			c0.7-1.16,1.25-2.43,1.61-3.76c0.22-0.8,0.36-1.62,0.44-2.44C46.34,10.34,41.47,2.34,34.2,1.14z"/>
	</g>
</g>
</svg>
